<svg height="512" viewBox="0 0 512 512" width="512" xmlns="http://www.w3.org/2000/svg"><g id="Flat"><path d="m352 24h-32v40h-40l16 32h24v392h32z" fill="#d4e4f0"/><circle cx="192" cy="184" fill="#68737f" r="64"/><circle cx="192" cy="184" fill="#4f5761" r="32"/><path d="m192 256a72 72 0 1 1 72-72 72.08124 72.08124 0 0 1 -72 72zm0-128a56 56 0 1 0 56 56 56.06322 56.06322 0 0 0 -56-56z" fill="#4f5761"/><path d="m192 224a40 40 0 1 1 40-40 40.04552 40.04552 0 0 1 -40 40zm0-64a24 24 0 1 0 24 24 24.0275 24.0275 0 0 0 -24-24z" fill="#3e454d"/><path d="m192 176h64v16h-64z" fill="#d4e4f0"/><path d="m184 304v64h-96l16 24-16 64h-24l-18.16992-121.12a32.00481 32.00481 0 0 1 33.41992-36.7l42.06006 2.34 6.68994.37z" fill="#fdc5ca"/><path d="m88 456v32h-64a23.60688 23.60688 0 0 1 14.85986-21.94l25.14014-10.06z" fill="#529ddf"/><path d="m184 304v64h-56v-67.11z" fill="#68737f"/><path d="m88 480v8h-64a23.76915 23.76915 0 0 1 1.39014-8z" fill="#d4e4f0"/><path d="m320 312 32 24v-16l24-8v-16l24 16h24v56h-112z" fill="#fdc5ca"/><path d="m376 368a22.1988 22.1988 0 0 1 15.17892-21.05962l8.82108-2.94038v-32a24 24 0 0 1 24-24v80z" fill="#ba8b5d"/><path d="m272 208h-16l16 128h-48v-176h48z" fill="#fdc5ca"/><path d="m272 336h-48v-64h40z" fill="#4384c3"/><path d="m248 176h76.333v16h-76.333z" fill="#d4e4f0"/><path d="m360 160v184a24 24 0 0 1 -24 24h-28l20-160h-16v-48z" fill="#fdc5ca"/><path d="m248 304h96v64h-96z" fill="#529ddf"/><path d="m152 368h336v32h-336z" fill="#e04446"/><path d="m488 400v32h-296v56h-40v-88z" fill="#d4e4f0"/><circle cx="408" cy="184" fill="#68737f" r="64"/><circle cx="408" cy="184" fill="#4f5761" r="32"/><path d="m408 256a72 72 0 1 1 72-72 72.08124 72.08124 0 0 1 -72 72zm0-128a56 56 0 1 0 56 56 56.06322 56.06322 0 0 0 -56-56z" fill="#4f5761"/><path d="m408 224a40 40 0 1 1 40-40 40.04552 40.04552 0 0 1 -40 40zm0-64a24 24 0 1 0 24 24 24.0275 24.0275 0 0 0 -24-24z" fill="#3e454d"/><path d="m408 176h32v16h-32z" fill="#d4e4f0"/><path d="m184 304v64h-77.19995l-4.97-33.12a32.01935 32.01935 0 0 1 19.48-34.36l6.68995.37z" fill="#fc979e"/><path d="m256 304v64h-96l16 24-16 64h-24l-18.16992-121.12a32.00481 32.00481 0 0 1 33.41992-36.7l48.75 2.71z" fill="#fdc5ca"/><path d="m160 456v32h-64a23.60688 23.60688 0 0 1 14.85986-21.94l25.14014-10.06z" fill="#529ddf"/><path d="m160 480v8h-64a23.76915 23.76915 0 0 1 1.39014-8z" fill="#d4e4f0"/><path d="m256 304v64h-56v-67.11z" fill="#68737f"/><path d="m488 24v464h-32v-392h-24l-16-32h40v-40z" fill="#d4e4f0"/><path d="m360 272v72a24 24 0 0 1 -24 24h-28l12-96z" fill="#529ddf"/><path d="m316 304-4 32-15.88-1.98 3.75-30.02z" fill="#4384c3"/><path d="m320 432h32v56h-32z" fill="#c1d7e6"/></g></svg>