<svg id="Capa_1" enable-background="new 0 0 496.316 496.316" height="512" viewBox="0 0 496.316 496.316" width="512" xmlns="http://www.w3.org/2000/svg"><path d="m489.65 352.939c-7.46-1.97-19.2-5.05-33.84-8.82l-176.34-41.92c-27.6-5.75-52.62-10.33-71.2-12.56h-.8l-115.37-1.74-34.94-.08-52.269-.121c-2.144-.005-3.886 1.729-3.892 3.872l-.069 25.235c-.006 2.145 1.729 3.888 3.873 3.893l87.296.211 115.28 1.81c16.69 2.14 39.4 6.35 64.99 11.71l176.34 41.93c12.1 3.12 23.09 5.99 32.47 8.47 4.77 1.26 9.65-1.58 10.93-6.34l3.9-14.59c1.281-4.78-1.569-9.7-6.359-10.96z" fill="#acacac"/><path d="m495.678 362.97c-1.28 4.76-6.16 7.6-10.93 6.34-9.38-2.48-20.37-5.35-32.47-8.47l-176.34-41.93c-25.59-5.36-48.3-9.57-64.99-11.71l-115.28-1.81-73.743-.178c-9.629-.023-17.415-7.85-17.389-17.479-1.975.177-3.531 1.815-3.536 3.837l-.069 25.235c-.006 2.145 1.728 3.888 3.873 3.893l87.296.211 115.28 1.81c16.69 2.14 39.4 6.35 64.99 11.71l176.34 41.93c12.1 3.12 23.09 5.99 32.47 8.47 4.77 1.26 9.65-1.58 10.93-6.34l3.9-14.59c.282-1.052.353-2.109.258-3.135z" fill="#9e9797"/><g fill="#838383"><path d="m285.045 462.801-18.717-4.123c-11.231-2.474-18.33-13.584-15.856-24.815l49.996-226.976c2.474-11.231 13.584-18.33 24.815-15.856l18.717 4.123c11.231 2.474 18.33 13.584 15.856 24.815l-49.996 226.976c-2.474 11.231-13.584 18.33-24.815 15.856z"/><path d="m345.501 468.219-18.126-3.992c-11.231-2.474-18.33-13.584-15.856-24.815l45.612-207.075c2.474-11.231 13.584-18.33 24.815-15.856l18.126 3.993c11.231 2.474 18.33 13.584 15.856 24.815l-45.612 207.075c-2.474 11.23-13.584 18.329-24.815 15.855z"/><path d="m406.506 471.142-18.126-3.992c-11.231-2.474-18.33-13.584-15.856-24.815l40.562-184.149c2.474-11.231 13.584-18.33 24.815-15.856l18.126 3.993c11.231 2.474 18.33 13.584 15.856 24.815l-40.562 184.149c-2.474 11.23-13.584 18.329-24.815 15.855z"/></g><path d="m287.354 441.875 49.995-226.975c1.745-7.923 7.795-13.771 15.146-15.671-2.412-1.928-5.276-3.365-8.496-4.074l-18.717-4.123c-11.231-2.474-22.341 4.625-24.815 15.856l-49.996 226.975c-2.474 11.231 4.625 22.341 15.856 24.815l18.717 4.123c3.308.729 6.599.608 9.668-.186-6.001-4.797-9.123-12.729-7.358-20.74z" fill="#766e6e"/><path d="m348.401 447.423 45.612-207.075c1.719-7.806 7.615-13.606 14.819-15.593-2.464-2.036-5.424-3.547-8.76-4.282l-18.126-3.992c-11.231-2.474-22.341 4.625-24.815 15.856l-45.612 207.075c-2.474 11.231 4.625 22.341 15.856 24.815l18.125 3.992c3.425.754 6.835.609 9.995-.263-5.83-4.818-8.833-12.639-7.094-20.533z" fill="#766e6e"/><path d="m409.406 450.346 40.562-184.149c1.719-7.806 7.615-13.606 14.819-15.593-2.464-2.036-5.424-3.547-8.76-4.282l-18.125-3.992c-11.231-2.474-22.341 4.625-24.815 15.856l-40.562 184.149c-2.474 11.231 4.625 22.341 15.856 24.815l18.126 3.993c3.425.754 6.835.608 9.995-.263-5.832-4.818-8.835-12.639-7.096-20.534z" fill="#766e6e"/><path d="m92.1 296.076c0-4.519-3.658-8.185-8.177-8.196l-25.967-.059c-.439-.001-.793-.359-.789-.798l.215-22.823c.195-20.661 9.693-40.33 26.259-52.678.53-.395 1.066-.782 1.609-1.162.71-.5.97-1.43.58-2.21l-51.46-104.48h-3.93c-16.812-.001-30.44-13.629-30.44-30.441v-50.956c0-3.63 2.943-6.573 6.573-6.573h66.783c2.319 0 4.569.792 6.378 2.244l49.386 39.656c7.81 6.29 13.41 14.92 15.97 24.62l27.33 103.56c.88 3.34 2.67 6.38 5.16 8.77l5.316 5.106c15.7 15.079 24.574 35.906 24.574 57.674v12.36 19.95 31.43c0 .56-.03 1.11-.09 1.65-.82 7.19-6.92 12.77-14.33 12.77-3.98 0-7.59-1.61-10.19-4.23-2.62-2.6-4.23-6.21-4.23-10.19-.01 7.95-6.46 14.4-14.42 14.4-3.98 0-7.59-1.61-10.19-4.23-2.62-2.6-4.23-6.21-4.23-10.19 0 7.96-6.46 14.42-14.42 14.42-3.99 0-7.59-1.61-10.2-4.23-2.61-2.6-4.22-6.21-4.22-10.19 0 7.96-6.46 14.42-14.42 14.42-3.99 0-7.59-1.61-10.2-4.23-2.61-2.6-4.23-6.21-4.23-10.19v-.14z" fill="#fed2a4"/><path d="m79.942 287.829-3.367-.008c-.439-.001-.793-.359-.789-.798l.214-22.823c.195-20.661 9.693-40.33 26.259-52.678.53-.395 1.066-.782 1.609-1.162.71-.5.97-1.43.58-2.21l-51.46-104.48h-3.93c-16.812 0-30.44-13.628-30.44-30.44v-50.958c0-3.63 2.943-6.573 6.573-6.573h-18.618c-3.63 0-6.573 2.943-6.573 6.573v50.957c0 16.812 13.628 30.44 30.44 30.44h3.93l51.46 104.48c.39.78.13 1.71-.58 2.21-.543.38-1.079.768-1.609 1.162-16.566 12.348-26.064 32.017-26.259 52.678l-.215 22.823c-.004.439.35.797.789.798l21.985.05v-.041z" fill="#ffbd86"/><path d="m114.948 331.239c-2.61-2.6-4.23-6.21-4.23-10.19v-.14-24.833c0-4.519-3.658-8.185-8.177-8.196l-18.056-.041v.071c4.255.3 7.614 3.837 7.614 8.166v24.833.14c0 3.98 1.62 7.59 4.23 10.19 2.61 2.62 6.21 4.23 10.2 4.23 3.549 0 6.795-1.29 9.308-3.419-.305-.26-.605-.526-.889-.811z" fill="#ffbd86"/><path d="m367.663 105.252-29.21-36.568c-.884-1.106-2.565-1.106-3.449 0l-29.21 36.568c-1.155 1.445-.125 3.585 1.724 3.585h10.49c1.219 0 2.207.988 2.207 2.207v35.251c0 1.219.988 2.207 2.207 2.207h28.613c1.219 0 2.207-.988 2.207-2.207v-35.251c0-1.219.988-2.207 2.207-2.207h10.49c1.85-.001 2.879-2.14 1.724-3.585z" fill="#00f2a6"/><path d="m123.039 437.368-29.21-36.568c-.884-1.106-2.565-1.106-3.449 0l-29.21 36.568c-1.155 1.445-.125 3.585 1.724 3.585h10.49c1.219 0 2.207.988 2.207 2.207v35.251c0 1.219.988 2.207 2.207 2.207h28.613c1.219 0 2.207-.988 2.207-2.207v-35.251c0-1.219.988-2.207 2.207-2.207h10.49c1.85-.001 2.879-2.14 1.724-3.585z" fill="#01d0fb"/><path d="m143.799 331.239c-2.61-2.6-4.23-6.21-4.23-10.19v-.14s-.004-7.748-.01-14.665c-.004-5.862-4.758-10.611-10.62-10.611h-8.01c.008.148.021 25.276.021 25.276v.14c0 3.98 1.62 7.59 4.23 10.19 2.61 2.62 6.21 4.23 10.2 4.23 3.549 0 6.795-1.29 9.308-3.419-.305-.26-.606-.526-.889-.811z" fill="#ffbd86"/><path d="m172.627 331.239c-2.61-2.6-4.23-6.21-4.23-10.19v-.14s-.004-7.748-.01-14.665c-.004-5.862-4.758-10.611-10.62-10.611h-8.01c.008.148.021 25.276.021 25.276v.14c0 3.98 1.62 7.59 4.23 10.19 2.61 2.62 6.21 4.23 10.2 4.23 3.549 0 6.795-1.29 9.308-3.419-.305-.26-.606-.526-.889-.811z" fill="#ffbd86"/><path d="m201.471 331.239c-2.61-2.6-4.23-6.21-4.23-10.19v-.14s-.004-7.748-.01-14.665c-.004-5.862-4.758-10.611-10.62-10.611h-8.01c.008.148.021 25.276.021 25.276v.14c0 3.98 1.62 7.59 4.23 10.19 2.61 2.62 6.21 4.23 10.2 4.23 3.549 0 6.795-1.29 9.308-3.419-.305-.26-.605-.526-.889-.811z" fill="#ffbd86"/></svg>