<?xml version="1.0"?>
<svg xmlns="http://www.w3.org/2000/svg" viewBox="0 0 512 512" width="512" height="512"><g id="Out_line" data-name="Out line"><path d="M288.84473,99.57764A7.99979,7.99979,0,0,0,296,104h16v32h16V96a8.00008,8.00008,0,0,0-8-8H300.94434l-8-16H320a8.00008,8.00008,0,0,0,8-8V32h16v80h16V24a8.00008,8.00008,0,0,0-8-8H320a8.00008,8.00008,0,0,0-8,8V56H280a7.99928,7.99928,0,0,0-7.15527,11.57764Z"/><path d="M488,16H456a8.00008,8.00008,0,0,0-8,8V56H416a7.99928,7.99928,0,0,0-7.15527,11.57764l16,32A7.99869,7.99869,0,0,0,432,104h16V360H432V288a8.00008,8.00008,0,0,0-8-8,32.03826,32.03826,0,0,0-29.19434,18.92249l-14.36816-9.57874A8.00016,8.00016,0,0,0,368,296V243.83313a71.99,71.99,0,0,0,67.002,6.93l-6.0039-14.83105a56,56,0,1,1,0-103.86426l6.0039-14.83105A72.0237,72.0237,0,0,0,343.52759,152H312a8.00008,8.00008,0,0,0-8,8v16H280V160a8.00008,8.00008,0,0,0-8-8H256.50342A72.0025,72.0025,0,1,0,216,251.88287v41.88245l-64.30371-3.57245a40.05171,40.05171,0,0,0-17.62695,3.02081l-54.37305-3.02081A39.99954,39.99954,0,0,0,37.9209,336.06494L55.14941,450.92407l-19.26562,7.70581A31.48144,31.48144,0,0,0,16,488a8.00008,8.00008,0,0,0,8,8H192a8.00008,8.00008,0,0,0,8-8V440H312v48a8.00008,8.00008,0,0,0,8,8h32a8.00008,8.00008,0,0,0,8-8V440h88v48a8.00008,8.00008,0,0,0,8,8h32a8.00008,8.00008,0,0,0,8-8V24A8.00008,8.00008,0,0,0,488,16ZM183.58984,389.47021,179.09961,376H448v16H183.98389A7.99055,7.99055,0,0,0,183.58984,389.47021ZM208,309.34564l40,2.22223V360H208ZM408,344V312a16.008,16.008,0,0,1,8-13.85254V360H386.47437a14.16733,14.16733,0,0,1,7.23461-5.47021l8.82129-2.94043A7.99967,7.99967,0,0,0,408,344Zm-29.46973-24.41064A7.99967,7.99967,0,0,0,384,312v-1.05176l8,5.33313v21.95252l-3.35156,1.11718A30.14048,30.14048,0,0,0,369.09521,360h-5.40039A31.79171,31.79171,0,0,0,368,344V323.09955ZM320,168h17.81421A71.72009,71.72009,0,0,0,352,229.18512V264H329.0625l6.876-55.00781A8.00087,8.00087,0,0,0,328,200h-8Zm7.0625,112H352v64a16.01833,16.01833,0,0,1-16,16H264V312h42.9375l-2.876,23.00781,15.877,1.98438ZM304,192v16a8.00008,8.00008,0,0,0,8,8h6.9375l-10,80h-33.875l-10-80H272a8.00008,8.00008,0,0,0,8-8V192Zm-40-16H248v16h16v8h-8a8.00087,8.00087,0,0,0-7.93848,8.99219L254.9375,264H232V168h32Zm-49.37622,16a24,24,0,1,1,0-16H192v16ZM192,240a56,56,0,1,1,45.9707-88H224a7.9625,7.9625,0,0,0-5.42847,2.13556A39.99581,39.99581,0,1,0,216,215.978v18.62433A56.059,56.059,0,0,1,192,240Zm40,40h24.9375l2,16h-2.71387L232,294.65424Zm-81.19043,26.16846L192,308.45679V360H168a8,8,0,0,0-7.58984,10.52979l7.26367,21.79L153.75391,448H142.88965L125.74316,333.69141a24.00064,24.00064,0,0,1,25.06641-27.523ZM59.7334,313.97217a23.88474,23.88474,0,0,1,19.07617-7.80371l37.19605,2.06653a39.80543,39.80543,0,0,0-6.08472,27.82995L113.51123,360H88a7.99956,7.99956,0,0,0-6.65625,12.4375l14.03711,21.05566L81.75391,448H70.88965L53.74316,333.69141A23.904,23.904,0,0,1,59.7334,313.97217ZM34.18457,480a15.5936,15.5936,0,0,1,7.6416-6.51465L65.54,464H80v16ZM96,466.94934V456.9834l15.76074-63.043a8,8,0,0,0-1.10449-6.37793L102.94824,376h12.96289l11.23828,74.92407-19.26562,7.70581A31.66113,31.66113,0,0,0,96,466.94934ZM106.18457,480a15.5936,15.5936,0,0,1,7.6416-6.51465L137.54,464H152v16ZM344,480H328V440h16ZM192,424a8.00008,8.00008,0,0,0-8,8v48H168V456.9834L180.24585,408H448v16Zm288,56H464V96a8.00008,8.00008,0,0,0-8-8H436.94434l-8-16H456a8.00008,8.00008,0,0,0,8-8V32h16Z"/><rect x="408" y="176" width="32" height="16"/><path d="M408,144a40,40,0,1,0,29.998,66.46L426.002,199.87305a24.00025,24.00025,0,1,1,0-31.74561l11.9961-10.58691A40.02723,40.02723,0,0,0,408,144Z"/></g></svg>
