<?xml version="1.0" encoding="iso-8859-1"?>
<!-- Generator: Adobe Illustrator 19.0.0, SVG Export Plug-In . SVG Version: 6.00 Build 0)  -->
<svg version="1.1" id="Capa_1" xmlns="http://www.w3.org/2000/svg" xmlns:xlink="http://www.w3.org/1999/xlink" x="0px" y="0px"
	 viewBox="0 0 208.213 208.213" style="enable-background:new 0 0 208.213 208.213;" xml:space="preserve">
<g>
	<g>
		<rect x="51.2" y="51.2" width="105.813" height="6.827"/>
	</g>
</g>
<g>
	<g>
		<path d="M20.48,23.893v61.44h20.48v-61.44H20.48z M34.133,78.507h-6.827V30.72h6.827V78.507z"/>
	</g>
</g>
<g>
	<g>
		<path d="M34.133,13.653v81.92h20.48v-81.92H34.133z M47.787,88.747H40.96V20.48h6.827V88.747z"/>
	</g>
</g>
<g>
	<g>
		<path d="M6.827,34.133v40.96h20.48v-40.96H6.827z M20.48,68.267h-6.827V40.96h6.827V68.267z"/>
	</g>
</g>
<g>
	<g>
		<path d="M167.253,23.893v61.44h20.48v-61.44H167.253z M180.907,78.507h-6.827V30.72h6.827V78.507z"/>
	</g>
</g>
<g>
	<g>
		<path d="M153.6,13.653v81.92h20.48v-81.92H153.6z M167.253,88.747h-6.827V20.48h6.827V88.747z"/>
	</g>
</g>
<g>
	<g>
		<path d="M180.907,34.133v40.96h20.48v-40.96H180.907z M194.56,68.267h-6.827V40.96h6.827V68.267z"/>
	</g>
</g>
<g>
	<g>
		<rect x="61.44" y="47.787" width="6.827" height="133.12"/>
	</g>
</g>
<g>
	<g>
		<rect x="139.947" y="47.787" width="6.827" height="133.12"/>
	</g>
</g>
<g>
	<g>
		<path d="M177.493,177.493H30.72c-1.884,0-3.413,1.529-3.413,3.413v10.24c0,1.884,1.529,3.413,3.413,3.413h146.773
			c1.884,0,3.413-1.529,3.413-3.413v-10.24C180.907,179.023,179.378,177.493,177.493,177.493z M174.08,187.733H34.133v-3.413H174.08
			V187.733z"/>
	</g>
</g>
<g>
	<g>
		<rect y="51.2" width="10.24" height="6.827"/>
	</g>
</g>
<g>
	<g>
		<rect x="197.973" y="51.2" width="10.24" height="6.827"/>
	</g>
</g>
<g>
</g>
<g>
</g>
<g>
</g>
<g>
</g>
<g>
</g>
<g>
</g>
<g>
</g>
<g>
</g>
<g>
</g>
<g>
</g>
<g>
</g>
<g>
</g>
<g>
</g>
<g>
</g>
<g>
</g>
</svg>
